<?xml version="1.0" encoding="iso-8859-1"?>
<!-- Uploaded to: SVG Repo, www.svgrepo.com, Generator: SVG Repo Mixer Tools -->
<svg fill="#000000" height="800px" width="800px" version="1.1" id="Layer_1" xmlns="http://www.w3.org/2000/svg" xmlns:xlink="http://www.w3.org/1999/xlink" 
	 viewBox="0 0 511.923 511.923" xml:space="preserve">
<g>
	<g>
		<path d="M494.715,459.085c-4.787-23.339-10.914-55.578-18.005-92.919c-36.028-189.602-55.654-282.189-69.82-295.569
			c-9.37-8.849-37.137-18.97-50.441-23.475c-2.116-6.775-5.777-13.09-11.059-18.185c-7.049-6.886-15.829-15.462-26.496-19.78
			c-0.017-0.009-0.043,0-0.06-0.009c-0.034-0.009-0.051-0.034-0.085-0.051C306.957,4.565,282.97,0,255.962,0
			s-50.995,4.565-62.788,9.096c-0.034,0.017-0.051,0.043-0.085,0.051c-0.017,0.009-0.043,0-0.06,0.009
			c-10.684,4.318-19.456,12.894-26.718,19.994c-5.18,5.001-8.789,11.247-10.872,17.988c-13.32,4.506-41.045,14.618-50.406,23.458
			c-14.165,13.38-33.792,105.967-69.82,295.569c-7.091,37.342-13.218,69.581-18.005,92.919c-0.478,2.304,0.017,4.702,1.374,6.622
			c1.357,1.929,3.439,3.209,5.769,3.541l59.733,8.533c4.531,0.614,8.789-2.423,9.609-6.929
			c10.65-59.025,39.313-215.262,43.964-229.222c2.944-8.832,9.105-24.183,14.387-36.992c5.478,21.555,9.941,48.7,10.052,75.964
			c-3.311,13.815-34.133,144.376-34.133,214.332c0,4.25,3.123,7.851,7.322,8.448c0.58,0.085,55.398,7.808,112.145,8.542V229.137
			c2.918,0.802,5.769,1.263,8.533,1.263c2.765,0,5.615-0.461,8.533-1.263v282.786c56.747-0.734,111.565-8.457,112.145-8.542
			c4.198-0.597,7.322-4.198,7.322-8.448c0-69.956-30.822-200.516-34.133-214.332c0.111-27.264,4.574-54.409,10.052-75.964
			c5.282,12.809,11.443,28.16,14.387,36.992c4.651,13.961,33.314,170.197,43.964,229.222c0.819,4.506,5.018,7.543,9.609,6.929
			l59.733-8.533c2.33-0.333,4.412-1.613,5.768-3.541C494.699,463.787,495.194,461.389,494.715,459.085z M255.962,17.067
			c20.07,0,38.357,2.722,49.869,5.811L300.163,51.2h-88.405l-5.666-28.322C217.603,19.789,235.89,17.067,255.962,17.067z
			 M176.251,76.655c-1.126-1.357-2.074-2.859-2.884-4.437c-0.085-0.171-0.171-0.341-0.247-0.512
			c-1.57-3.251-2.483-6.869-2.62-10.581c-0.009-0.051,0-0.094-0.009-0.145c-0.051-1.852,0.077-3.721,0.401-5.572
			c0.973-5.316,3.507-10.342,7.569-14.268c3.439-3.354,7.356-7.185,11.503-10.419c2.355,12.672,6.443,32.845,12.169,54.63h-1.638
			c-1.314,0-2.628,0-4.207-0.017c-1.86-0.009-3.61-0.222-5.316-0.521c-0.486-0.085-0.964-0.179-1.434-0.29
			c-1.451-0.324-2.85-0.742-4.173-1.28c-0.196-0.085-0.418-0.137-0.623-0.222c-1.468-0.649-2.825-1.459-4.104-2.372
			c-0.307-0.213-0.606-0.452-0.905-0.683C178.478,78.985,177.283,77.909,176.251,76.655z M221.827,469.333
			c-4.71,0-8.533-3.823-8.533-8.533c0-4.71,3.823-8.533,8.533-8.533s8.533,3.823,8.533,8.533
			C230.361,465.51,226.538,469.333,221.827,469.333z M221.827,418.133c-4.71,0-8.533-3.823-8.533-8.533
			c0-4.71,3.823-8.533,8.533-8.533s8.533,3.823,8.533,8.533C230.361,414.31,226.538,418.133,221.827,418.133z M221.827,366.933
			c-4.71,0-8.533-3.823-8.533-8.533c0-4.71,3.823-8.533,8.533-8.533s8.533,3.823,8.533,8.533
			C230.36,363.11,226.538,366.933,221.827,366.933z M221.827,315.733c-4.71,0-8.533-3.823-8.533-8.533
			c0-4.71,3.823-8.533,8.533-8.533s8.533,3.823,8.533,8.533C230.36,311.91,226.538,315.733,221.827,315.733z M221.827,264.533
			c-4.71,0-8.533-3.823-8.533-8.533c0-4.71,3.823-8.533,8.533-8.533s8.533,3.823,8.533,8.533
			C230.361,260.71,226.538,264.533,221.827,264.533z M244.133,209.4c-1.058-0.589-2.142-1.254-3.234-1.954
			c-0.444-0.282-0.879-0.555-1.331-0.853c-1.212-0.811-2.441-1.673-3.695-2.594c-0.589-0.435-1.195-0.905-1.783-1.357
			c-0.862-0.666-1.732-1.331-2.603-2.031c-0.666-0.538-1.34-1.101-2.014-1.655c-0.819-0.683-1.638-1.365-2.458-2.074
			c-0.7-0.606-1.391-1.212-2.091-1.826c-0.802-0.708-1.604-1.434-2.398-2.159c-0.708-0.649-1.417-1.289-2.125-1.946
			c-0.811-0.751-1.613-1.519-2.415-2.287c-0.674-0.648-1.348-1.28-2.022-1.929c-0.905-0.879-1.801-1.775-2.697-2.662
			c-1.118-1.109-2.219-2.21-3.311-3.319c-0.794-0.802-1.587-1.604-2.355-2.398c-0.742-0.76-1.459-1.519-2.176-2.27
			c-0.64-0.666-1.28-1.331-1.903-1.988c-0.725-0.768-1.434-1.527-2.142-2.278c-0.58-0.623-1.161-1.237-1.724-1.852
			c-0.674-0.725-1.348-1.451-1.997-2.159c-0.589-0.64-1.161-1.263-1.724-1.877c-0.589-0.649-1.186-1.297-1.749-1.92
			c-0.521-0.563-1.007-1.109-1.502-1.655c-0.572-0.632-1.161-1.289-1.698-1.886c-0.905-0.998-1.783-1.98-2.577-2.859l-4.403-4.907
			c-3.627-4.122-5.265-9.463-4.625-15.036c0.674-5.837,3.806-11.145,8.704-14.635l20.48-15.087
			c1.152,3.746,2.355,7.467,3.601,11.162c0.026,0.085,0.06,0.179,0.085,0.256c0.171,0.512,0.35,1.007,0.529,1.519
			c8.986,26.547,18.568,45.542,28.689,56.892c0.06,0.068,0.128,0.137,0.188,0.205c1.86,2.057,3.721,3.908,5.615,5.453
			c0.051,0.043,0.102,0.111,0.154,0.154v27.45c-0.597-0.273-1.202-0.563-1.825-0.887C245.115,209.904,244.628,209.682,244.133,209.4
			z M260.483,163.225c-1.425,1.877-2.859,3.541-4.301,4.958c-0.034,0.043-0.077,0.094-0.119,0.137
			c-0.043,0.034-0.077,0.051-0.12,0.085c0,0,0,0-0.009,0c-13.534-13.073-27.895-48.631-40.371-100.139h80.794
			c-1.468,6.059-2.961,11.878-4.48,17.485c-8.661,31.591-19.567,61.748-31.249,77.295
			C260.577,163.114,260.535,163.165,260.483,163.225z M290.095,469.333c-4.71,0-8.533-3.823-8.533-8.533
			c0-4.71,3.823-8.533,8.533-8.533c4.71,0,8.533,3.823,8.533,8.533C298.627,465.51,294.804,469.333,290.095,469.333z
			 M290.095,418.133c-4.71,0-8.533-3.823-8.533-8.533c0-4.71,3.823-8.533,8.533-8.533c4.71,0,8.533,3.823,8.533,8.533
			C298.627,414.31,294.804,418.133,290.095,418.133z M290.095,366.933c-4.71,0-8.533-3.823-8.533-8.533
			c0-4.71,3.823-8.533,8.533-8.533c4.71,0,8.533,3.823,8.533,8.533C298.627,363.11,294.804,366.933,290.095,366.933z
			 M290.095,315.733c-4.71,0-8.533-3.823-8.533-8.533c0-4.71,3.823-8.533,8.533-8.533c4.71,0,8.533,3.823,8.533,8.533
			C298.627,311.91,294.804,315.733,290.095,315.733z M290.095,264.533c-4.71,0-8.533-3.823-8.533-8.533
			c0-4.71,3.823-8.533,8.533-8.533c4.71,0,8.533,3.823,8.533,8.533C298.627,260.71,294.804,264.533,290.095,264.533z
			 M327.47,153.199l-3.959,4.412c-0.794,0.879-1.673,1.86-2.577,2.859c-0.563,0.631-1.186,1.323-1.801,1.997
			c-0.444,0.486-0.879,0.973-1.348,1.485c-0.597,0.666-1.237,1.365-1.869,2.057c-0.538,0.589-1.084,1.178-1.638,1.783
			c-0.657,0.717-1.331,1.442-2.014,2.176c-0.563,0.614-1.143,1.229-1.724,1.852c-0.708,0.751-1.417,1.51-2.142,2.278
			c-0.623,0.657-1.263,1.323-1.903,1.988c-0.717,0.751-1.442,1.51-2.176,2.27c-0.725,0.751-1.468,1.493-2.202,2.244
			c-1.203,1.22-2.406,2.432-3.635,3.644c-0.836,0.828-1.664,1.656-2.509,2.475c-0.691,0.666-1.382,1.323-2.074,1.98
			c-0.794,0.751-1.579,1.51-2.381,2.244c-0.708,0.666-1.417,1.306-2.125,1.954c-0.794,0.725-1.596,1.451-2.398,2.159
			c-0.7,0.614-1.399,1.22-2.091,1.826c-0.819,0.708-1.63,1.382-2.441,2.057c-0.683,0.572-1.365,1.135-2.039,1.681
			c-0.87,0.7-1.724,1.357-2.586,2.014c-0.597,0.452-1.203,0.93-1.792,1.365c-1.254,0.922-2.483,1.783-3.695,2.594
			c-0.452,0.299-0.887,0.572-1.331,0.853c-1.092,0.7-2.176,1.365-3.234,1.954c-0.503,0.282-0.981,0.503-1.476,0.759
			c-0.614,0.316-1.22,0.606-1.818,0.879v-27.452c0.051-0.043,0.102-0.111,0.154-0.154c1.894-1.544,3.755-3.396,5.615-5.453
			c0.06-0.068,0.128-0.137,0.188-0.205c10.12-11.349,19.703-30.344,28.689-56.892c0.179-0.512,0.358-1.007,0.529-1.519
			c0.026-0.077,0.06-0.171,0.085-0.256c1.246-3.695,2.449-7.415,3.601-11.162l20.591,15.172c4.779,3.405,7.919,8.713,8.593,14.549
			C333.179,143.241,331.54,148.582,327.47,153.199z M338.803,71.706c-0.077,0.171-0.162,0.341-0.247,0.512
			c-0.811,1.579-1.758,3.081-2.884,4.437c-1.033,1.254-2.227,2.33-3.482,3.311c-0.299,0.23-0.597,0.469-0.905,0.683
			c-1.28,0.913-2.637,1.724-4.105,2.372c-0.205,0.085-0.427,0.136-0.623,0.222c-1.323,0.538-2.722,0.956-4.173,1.28
			c-0.469,0.111-0.947,0.205-1.434,0.29c-1.707,0.299-3.456,0.512-5.316,0.521c-1.203,0.009-2.185,0.009-3.217,0.017h-2.628
			c5.726-21.786,9.813-41.941,12.16-54.622c4.19,3.26,8.192,7.168,11.81,10.701c3.797,3.678,6.255,8.465,7.245,13.594
			c0.017,0.085,0,0.171,0.017,0.265C342.036,60.945,341.192,66.756,338.803,71.706z"/>
	</g>
</g>
</svg>